<svg width="820" height="272" viewBox="0 0 820 272" fill="none" xmlns="http://www.w3.org/2000/svg">
<path d="M395.538 119.207H327.905V74.0066C327.905 60.8638 327.181 52.6584 325.733 49.4004C324.285 46.1424 321.097 44.5133 316.179 44.5133C310.607 44.5133 307.077 46.4943 305.579 50.4562C304.08 54.4182 303.326 62.9856 303.326 76.1585V196.957C303.326 209.597 304.07 217.843 305.579 221.694C307.077 225.545 310.446 227.476 315.696 227.476C320.946 227.476 324.023 225.545 325.582 221.684C327.131 217.823 327.915 208.752 327.915 194.473V161.782H395.548V171.919C395.548 198.838 393.647 217.933 389.846 229.186C386.044 240.448 377.637 250.312 364.623 258.789C351.609 267.256 335.568 271.5 316.501 271.5C297.433 271.5 280.356 267.91 267.503 260.74C254.651 253.57 246.132 243.636 241.959 230.945C237.785 218.255 235.693 199.169 235.693 173.678V97.6977C235.693 78.954 236.337 64.9062 237.624 55.5343C238.912 46.1625 242.733 37.1425 249.109 28.4645C255.475 19.7865 264.315 12.9587 275.619 7.98112C286.923 3.00357 299.907 0.509766 314.58 0.509766C334.502 0.509766 350.946 4.36108 363.899 12.0637C376.862 19.7664 385.37 29.3695 389.443 40.8631C393.516 52.3568 395.548 70.2458 395.548 94.5201V119.227L395.538 119.207Z" fill="#00E0B0"/>
<path d="M0 5.95996H68.1154C86.5397 5.95996 100.7 7.40798 110.606 10.2939C120.512 13.19 127.954 17.3631 132.942 22.8233C137.93 28.2835 141.3 34.9001 143.059 42.6631C144.83 50.4261 145.715 62.4527 145.715 78.7227V101.368C145.715 117.97 143.995 130.067 140.575 137.669C137.146 145.271 130.85 151.113 121.699 155.176C112.537 159.248 100.569 161.28 85.7955 161.28H67.6428V266.019H0V5.95996ZM67.6327 50.4563V116.643C69.5636 116.753 71.223 116.803 72.6109 116.803C78.826 116.803 83.1304 115.275 85.544 112.228C87.9577 109.171 89.1545 102.826 89.1545 93.1928V71.8245C89.1545 62.9353 87.7666 57.1533 84.9809 54.4785C82.1951 51.8037 76.4124 50.4663 67.6327 50.4663V50.4563Z" fill="#00E0B0"/>
<path d="M231.435 7.24578C251.925 13.7143 263.146 35.709 256.633 56.2997L222.272 164.935C215.759 185.526 193.925 197.085 173.435 190.617C152.945 184.148 141.724 162.154 148.237 141.563L182.598 32.9273C189.111 12.3366 210.945 0.777334 231.435 7.24578Z" fill="#00E0B0" stroke="white" stroke-width="10"/>
<path d="M143.792 193.316C162.52 183.581 185.519 190.599 195.669 208.958L196.142 209.84L196.143 209.842C206.025 228.857 198.613 252.288 179.589 262.186L179.586 262.186C160.562 272.075 137.128 264.675 127.236 245.66L127.236 245.659C117.353 226.644 124.766 203.214 143.79 193.316L143.792 193.316Z" fill="#00E0B0" stroke="white" stroke-width="10"/>
<path d="M567.923 5.95996L529.124 123.39L571.614 266.04H501.729L474.334 154.552V266.04H406.701V5.95996H474.334V106.999L504.454 5.95996H567.913H567.923Z" fill="#00E0B0"/>
<path d="M650.431 5.96021V213.992H691.563V266.04H582.798V5.96021H650.431Z" fill="#00E0B0"/>
<path d="M702.726 5.95996H815.504V58.008H770.359V107.321H812.608V156.795H770.359V213.981H819.999V266.029H702.716V5.95996H702.726Z" fill="#00E0B0"/>
</svg>
