<svg width="71" height="25" viewBox="0 0 71 25" fill="none" xmlns="http://www.w3.org/2000/svg">
<g clip-path="url(#clip0_560_728)">
<path d="M0 0.983551H5.8978C7.49307 0.983551 8.71913 1.11179 9.57685 1.36737C10.4346 1.62385 11.0789 1.99342 11.5109 2.47698C11.9428 2.96055 12.2345 3.54652 12.3869 4.23401C12.5401 4.92151 12.6167 5.98659 12.6167 7.42748V9.43298C12.6167 10.9033 12.4678 11.9746 12.1718 12.6478C11.8748 13.3211 11.3297 13.8385 10.5373 14.1982C9.74404 14.5589 8.70781 14.7388 7.42863 14.7388H5.85687V24.0146H0V0.983551ZM5.856 4.92418V10.7857C6.02319 10.7955 6.16687 10.8 6.28704 10.8C6.82518 10.8 7.19788 10.6646 7.40686 10.3948C7.61585 10.124 7.71947 9.5621 7.71947 8.70897V6.81658C7.71947 6.02934 7.59931 5.51728 7.3581 5.2804C7.11689 5.04351 6.61619 4.92507 5.856 4.92507V4.92418Z" fill="#00E0B0"/>
<path d="M13.584 14.1021V4.0123C13.584 2.33987 14.8954 0.984467 16.5124 0.984467C18.1295 0.984467 19.4409 2.33987 19.4409 4.0123V14.1021C19.4409 15.7745 18.1295 17.1299 16.5124 17.1299C14.8954 17.1299 13.584 15.7745 13.584 14.1021Z" fill="#00E0B0"/>
<path d="M14.4415 18.9034C15.5848 17.7341 17.4387 17.7341 18.5829 18.9034C19.7263 20.0727 19.7263 21.9686 18.5829 23.1388C17.4396 24.3081 15.5857 24.3081 14.4415 23.1388C13.2982 21.9695 13.2982 20.0736 14.4415 18.9034Z" fill="#00E0B0"/>
<path d="M34.2484 11.0129H28.3924V7.00992C28.3924 5.84599 28.3297 5.11931 28.2043 4.83077C28.0789 4.54224 27.8029 4.39797 27.3771 4.39797C26.8947 4.39797 26.589 4.57341 26.4593 4.92428C26.3295 5.27515 26.2642 6.03389 26.2642 7.20049V17.8985C26.2642 19.0179 26.3286 19.7482 26.4593 20.0893C26.589 20.4303 26.8807 20.6013 27.3353 20.6013C27.7898 20.6013 28.0563 20.4303 28.1912 20.0884C28.3253 19.7464 28.3933 18.9431 28.3933 17.6786V14.7834H34.2493V15.6811C34.2493 18.0651 34.0847 19.7562 33.7555 20.7527C33.4264 21.7501 32.6984 22.6237 31.5716 23.3744C30.4448 24.1243 29.0559 24.5001 27.4049 24.5001C25.7539 24.5001 24.2753 24.1822 23.1625 23.5472C22.0496 22.9123 21.3121 22.0324 20.9507 20.9085C20.5893 19.7847 20.4082 18.0944 20.4082 15.8369V9.10803C20.4082 7.44806 20.4639 6.20398 20.5754 5.374C20.6869 4.54402 21.0177 3.74521 21.5698 2.97667C22.121 2.20814 22.8864 1.60346 23.8652 1.16265C24.844 0.72183 25.9681 0.500977 27.2386 0.500977C28.9636 0.500977 30.3874 0.842053 31.5089 1.5242C32.6314 2.20636 33.368 3.05682 33.7207 4.07471C34.0734 5.09259 34.2493 6.67686 34.2493 8.82662V11.0147L34.2484 11.0129Z" fill="#00E0B0"/>
<path d="M49.1743 0.983398L45.8149 11.3831L49.4939 24.0163H43.4429L41.0708 14.1429V24.0163H35.2148V0.983398H41.0708V9.93153L43.6788 0.983398H49.1735H49.1743Z" fill="#00E0B0"/>
<path d="M56.3169 0.983398V19.4068H59.8784V24.0163H50.4609V0.983398H56.3169Z" fill="#00E0B0"/>
<path d="M60.8466 0.983398H70.6115V5.59282H66.7026V9.96002H70.3607V14.3415H66.7026V19.406H71.0008V24.0154H60.8457V0.983398H60.8466Z" fill="#00E0B0"/>
</g>
<defs>
<clipPath id="clip0_560_728">
<rect width="71" height="24" fill="white" transform="translate(0 0.5)"/>
</clipPath>
</defs>
</svg>
