<svg width="24" height="25" viewBox="0 0 24 25" fill="none" xmlns="http://www.w3.org/2000/svg">
<mask id="mask0_435_21617" style="mask-type:alpha" maskUnits="userSpaceOnUse" x="0" y="0" width="24" height="25">
<rect y="0.5" width="24" height="24" fill="#D9D9D9"/>
</mask>
<g mask="url(#mask0_435_21617)">
<path d="M21 20.7885V5.55775C21 5.46792 20.9712 5.39417 20.9135 5.3365C20.8558 5.27883 20.7821 5.25 20.6923 5.25H3.30775C3.21792 5.25 3.14417 5.27883 3.0865 5.3365C3.02883 5.39417 3 5.46792 3 5.55775V12.5C3 12.7125 2.92808 12.8906 2.78425 13.0343C2.64042 13.1781 2.46225 13.25 2.24975 13.25C2.03708 13.25 1.859 13.1781 1.7155 13.0343C1.57183 12.8906 1.5 12.7125 1.5 12.5V5.55775C1.5 5.06058 1.677 4.635 2.031 4.281C2.385 3.927 2.81058 3.75 3.30775 3.75H20.6923C21.1894 3.75 21.615 3.927 21.969 4.281C22.323 4.635 22.5 5.06058 22.5 5.55775V19.1058C22.5 19.5404 22.3554 19.9183 22.0663 20.2393C21.7773 20.5604 21.4218 20.7435 21 20.7885ZM9 14.1923C8.0375 14.1923 7.21358 13.8496 6.52825 13.1643C5.84275 12.4788 5.5 11.6548 5.5 10.6923C5.5 9.72975 5.84275 8.90583 6.52825 8.2205C7.21358 7.535 8.0375 7.19225 9 7.19225C9.9625 7.19225 10.7864 7.535 11.4718 8.2205C12.1573 8.90583 12.5 9.72975 12.5 10.6923C12.5 11.6548 12.1573 12.4788 11.4718 13.1643C10.7864 13.8496 9.9625 14.1923 9 14.1923ZM9 12.6923C9.55 12.6923 10.0208 12.4964 10.4125 12.1048C10.8042 11.7131 11 11.2423 11 10.6923C11 10.1423 10.8042 9.67142 10.4125 9.27975C10.0208 8.88808 9.55 8.69225 9 8.69225C8.45 8.69225 7.97917 8.88808 7.5875 9.27975C7.19583 9.67142 7 10.1423 7 10.6923C7 11.2423 7.19583 11.7131 7.5875 12.1048C7.97917 12.4964 8.45 12.6923 9 12.6923ZM3.01925 21.8078C2.59742 21.8078 2.23875 21.66 1.94325 21.3645C1.64775 21.0688 1.5 20.7102 1.5 20.2885V19.5845C1.5 19.0948 1.633 18.6413 1.899 18.224C2.165 17.8067 2.5205 17.4858 2.9655 17.2615C3.95383 16.777 4.95092 16.4136 5.95675 16.1713C6.96258 15.9289 7.977 15.8077 9 15.8077C10.023 15.8077 11.0374 15.9289 12.0433 16.1713C13.0491 16.4136 14.0462 16.777 15.0345 17.2615C15.4795 17.4858 15.835 17.8067 16.101 18.224C16.367 18.6413 16.5 19.0948 16.5 19.5845V20.2885C16.5 20.7102 16.3523 21.0688 16.0568 21.3645C15.7613 21.66 15.4026 21.8078 14.9808 21.8078H3.01925ZM3 20.3078H15V19.5845C15 19.382 14.9413 19.1945 14.824 19.022C14.7067 18.8497 14.5474 18.709 14.3462 18.6C13.4846 18.1757 12.6061 17.8542 11.7107 17.6355C10.8152 17.417 9.91167 17.3077 9 17.3077C8.08833 17.3077 7.18475 17.417 6.28925 17.6355C5.39392 17.8542 4.51542 18.1757 3.65375 18.6C3.45258 18.709 3.29333 18.8497 3.176 19.022C3.05867 19.1945 3 19.382 3 19.5845V20.3078Z" fill="#646464"/>
</g>
</svg>
