<svg width="24" height="25" viewBox="0 0 24 25" fill="none" xmlns="http://www.w3.org/2000/svg">
<mask id="mask0_435_21615" style="mask-type:alpha" maskUnits="userSpaceOnUse" x="0" y="0" width="24" height="25">
<rect y="0.5" width="24" height="24" fill="#D9D9D9"/>
</mask>
<g mask="url(#mask0_435_21615)">
<path d="M12.5962 12.1424C13.0217 11.6795 13.3364 11.1481 13.5404 10.5481C13.7443 9.94813 13.8462 9.32955 13.8462 8.69238C13.8462 8.05522 13.7443 7.43663 13.5404 6.83663C13.3364 6.23663 13.0217 5.70522 12.5962 5.24238C13.4744 5.34372 14.2035 5.72288 14.7837 6.37988C15.3637 7.03705 15.6537 7.80788 15.6537 8.69238C15.6537 9.57705 15.3637 10.3479 14.7837 11.0049C14.2035 11.6619 13.4744 12.041 12.5962 12.1424ZM17.4594 19.8079C17.5851 19.5784 17.6809 19.3341 17.7469 19.0751C17.8131 18.8161 17.8462 18.554 17.8462 18.2886V17.4616C17.8462 16.9165 17.7353 16.3978 17.5134 15.9056C17.2916 15.4135 16.9769 14.9911 16.5692 14.6386C17.3359 14.8938 18.0416 15.238 18.6864 15.6714C19.3313 16.1047 19.6537 16.7015 19.6537 17.4616V18.2886C19.6537 18.7103 19.5059 19.069 19.2104 19.3646C18.9149 19.6601 18.5564 19.8079 18.1347 19.8079H17.4594ZM19.6537 11.2501H18.4037C18.1912 11.2501 18.0131 11.1782 17.8694 11.0344C17.7256 10.8905 17.6537 10.7124 17.6537 10.4999C17.6537 10.2872 17.7256 10.1091 17.8694 9.96563C18.0131 9.82197 18.1912 9.75013 18.4037 9.75013H19.6537V8.50013C19.6537 8.28763 19.7256 8.10955 19.8694 7.96588C20.0133 7.82205 20.1915 7.75013 20.4042 7.75013C20.6167 7.75013 20.7948 7.82205 20.9384 7.96588C21.0819 8.10955 21.1537 8.28763 21.1537 8.50013V9.75013H22.4037C22.6162 9.75013 22.7944 9.82205 22.9382 9.96588C23.0819 10.1097 23.1537 10.2879 23.1537 10.5004C23.1537 10.713 23.0819 10.8911 22.9382 11.0346C22.7944 11.1783 22.6162 11.2501 22.4037 11.2501H21.1537V12.5001C21.1537 12.7126 21.0818 12.8907 20.9379 13.0344C20.7941 13.1782 20.6159 13.2501 20.4034 13.2501C20.1908 13.2501 20.0127 13.1782 19.8692 13.0344C19.7255 12.8907 19.6537 12.7126 19.6537 12.5001V11.2501ZM8.34619 12.1924C7.38369 12.1924 6.55969 11.8497 5.87419 11.1644C5.18886 10.4789 4.84619 9.65488 4.84619 8.69238C4.84619 7.72988 5.18886 6.90597 5.87419 6.22063C6.55969 5.53513 7.38369 5.19238 8.34619 5.19238C9.30869 5.19238 10.1326 5.53513 10.8179 6.22063C11.5034 6.90597 11.8462 7.72988 11.8462 8.69238C11.8462 9.65488 11.5034 10.4789 10.8179 11.1644C10.1326 11.8497 9.30869 12.1924 8.34619 12.1924ZM0.846191 18.2886V17.5846C0.846191 17.095 0.979191 16.6415 1.24519 16.2241C1.51119 15.8068 1.86661 15.486 2.31144 15.2616C3.29994 14.7771 4.29711 14.4137 5.30294 14.1714C6.30861 13.929 7.32302 13.8079 8.34619 13.8079C9.36919 13.8079 10.3836 13.929 11.3894 14.1714C12.3951 14.4137 13.3922 14.7771 14.3807 15.2616C14.8255 15.486 15.1809 15.8068 15.4469 16.2241C15.7131 16.6415 15.8462 17.095 15.8462 17.5846V18.2886C15.8462 18.7103 15.6984 19.069 15.4029 19.3646C15.1074 19.6601 14.7488 19.8079 14.3269 19.8079H2.36544C1.94361 19.8079 1.58494 19.6601 1.28944 19.3646C0.993941 19.069 0.846191 18.7103 0.846191 18.2886ZM8.34619 10.6924C8.89619 10.6924 9.36703 10.4965 9.75869 10.1049C10.1504 9.71322 10.3462 9.24238 10.3462 8.69238C10.3462 8.14238 10.1504 7.67155 9.75869 7.27988C9.36703 6.88822 8.89619 6.69238 8.34619 6.69238C7.79619 6.69238 7.32536 6.88822 6.93369 7.27988C6.54202 7.67155 6.34619 8.14238 6.34619 8.69238C6.34619 9.24238 6.54202 9.71322 6.93369 10.1049C7.32536 10.4965 7.79619 10.6924 8.34619 10.6924ZM2.34619 18.3079H14.3462V17.5846C14.3462 17.3821 14.2875 17.1946 14.1702 17.0221C14.0529 16.8498 13.8935 16.7091 13.6922 16.6001C12.8307 16.1758 11.9523 15.8543 11.0569 15.6356C10.1614 15.4171 9.25786 15.3079 8.34619 15.3079C7.43436 15.3079 6.53078 15.4171 5.63544 15.6356C4.73994 15.8543 3.86144 16.1758 2.99994 16.6001C2.79861 16.7091 2.63936 16.8498 2.52219 17.0221C2.40486 17.1946 2.34619 17.3821 2.34619 17.5846V18.3079Z" fill="#646464"/>
</g>
</svg>
