<svg width="24" height="25" viewBox="0 0 24 25" fill="none" xmlns="http://www.w3.org/2000/svg">
<mask id="mask0_435_21590" style="mask-type:alpha" maskUnits="userSpaceOnUse" x="0" y="0" width="24" height="25">
<rect y="0.5" width="24" height="24" fill="#D9D9D9"/>
</mask>
<g mask="url(#mask0_435_21590)">
<path d="M11.9983 22.1923C11.5008 22.1923 11.0754 22.0153 10.7223 21.6613C10.3689 21.3073 10.1923 20.8817 10.1923 20.3845H13.8077C13.8077 20.8833 13.6306 21.3093 13.2762 21.6625C12.9219 22.0157 12.4959 22.1923 11.9983 22.1923ZM5.25 19.3845C5.0375 19.3845 4.85942 19.3127 4.71575 19.169C4.57192 19.0252 4.5 18.8469 4.5 18.6343C4.5 18.4218 4.57192 18.2437 4.71575 18.1C4.85942 17.9565 5.0375 17.8848 5.25 17.8848H6.30775V10.423C6.30775 9.07817 6.72283 7.88908 7.553 6.85575C8.383 5.82242 9.44867 5.1615 10.75 4.873V4.25C10.75 3.90283 10.8714 3.60767 11.1143 3.3645C11.3571 3.1215 11.6519 3 11.9988 3C12.3458 3 12.641 3.1215 12.8845 3.3645C13.1282 3.60767 13.25 3.90283 13.25 4.25V4.45C13.0858 4.74617 12.9557 5.04742 12.8595 5.35375C12.7633 5.66025 12.7044 5.97825 12.6827 6.30775C12.5689 6.28725 12.4579 6.26925 12.3498 6.25375C12.2418 6.23842 12.1252 6.23075 12 6.23075C10.8423 6.23075 9.85417 6.64008 9.0355 7.45875C8.217 8.27725 7.80775 9.26533 7.80775 10.423V17.8848H16.1923V11.6328C16.4218 11.7148 16.6641 11.7788 16.9193 11.825C17.1744 11.8712 17.4321 11.8911 17.6923 11.8848V17.8848H18.75C18.9625 17.8848 19.1406 17.9566 19.2843 18.1003C19.4281 18.2441 19.5 18.4223 19.5 18.635C19.5 18.8475 19.4281 19.0256 19.2843 19.1693C19.1406 19.3128 18.9625 19.3845 18.75 19.3845H5.25ZM17.4818 9.702C16.7183 9.702 16.0689 9.43475 15.5337 8.90025C14.9984 8.36575 14.7308 7.71667 14.7308 6.953C14.7308 6.1895 14.998 5.54008 15.5325 5.00475C16.067 4.46958 16.716 4.202 17.4795 4.202C18.2432 4.202 18.8926 4.46925 19.4277 5.00375C19.9631 5.53825 20.2308 6.18725 20.2308 6.95075C20.2308 7.71442 19.9635 8.36383 19.429 8.899C18.8945 9.43433 18.2454 9.702 17.4818 9.702Z" fill="#646464"/>
</g>
</svg>
