<svg width="24" height="25" viewBox="0 0 24 25" fill="none" xmlns="http://www.w3.org/2000/svg">
<mask id="mask0_435_21610" style="mask-type:alpha" maskUnits="userSpaceOnUse" x="0" y="0" width="24" height="25">
<rect y="0.5" width="24" height="24" fill="#D9D9D9"/>
</mask>
<g mask="url(#mask0_435_21610)">
<path opacity="0.3" d="M11.25 13.25H6.25C6.0375 13.25 5.85942 13.1781 5.71575 13.0342C5.57192 12.8904 5.5 12.7122 5.5 12.4997C5.5 12.2871 5.57192 12.109 5.71575 11.9655C5.85942 11.8218 6.0375 11.75 6.25 11.75H11.25V6.75C11.25 6.5375 11.3219 6.35942 11.4658 6.21575C11.6096 6.07192 11.7878 6 12.0003 6C12.2129 6 12.391 6.07192 12.5345 6.21575C12.6782 6.35942 12.75 6.5375 12.75 6.75V11.75H17.75C17.9625 11.75 18.1406 11.8219 18.2843 11.9658C18.4281 12.1096 18.5 12.2878 18.5 12.5003C18.5 12.7129 18.4281 12.891 18.2843 13.0345C18.1406 13.1782 17.9625 13.25 17.75 13.25H12.75V18.25C12.75 18.4625 12.6781 18.6406 12.5342 18.7843C12.3904 18.9281 12.2122 19 11.9997 19C11.7871 19 11.609 18.9281 11.4655 18.7843C11.3218 18.6406 11.25 18.4625 11.25 18.25V13.25Z" fill="#646464"/>
</g>
</svg>
