<svg width="24" height="25" viewBox="0 0 24 25" fill="none" xmlns="http://www.w3.org/2000/svg">
<mask id="mask0_435_21612" style="mask-type:alpha" maskUnits="userSpaceOnUse" x="0" y="0" width="24" height="25">
<rect y="0.5" width="24" height="24" fill="#D9D9D9"/>
</mask>
<g mask="url(#mask0_435_21612)">
<path d="M7.30775 21.0002C6.81058 21.0002 6.385 20.8232 6.031 20.4692C5.677 20.1152 5.5 19.6896 5.5 19.1925V6.50022H5.25C5.0375 6.50022 4.85942 6.42831 4.71575 6.28447C4.57192 6.14064 4.5 5.96247 4.5 5.74997C4.5 5.53731 4.57192 5.35922 4.71575 5.21572C4.85942 5.07206 5.0375 5.00022 5.25 5.00022H9C9 4.75539 9.08625 4.54672 9.25875 4.37422C9.43108 4.20189 9.63967 4.11572 9.8845 4.11572H14.1155C14.3603 4.11572 14.5689 4.20189 14.7413 4.37422C14.9138 4.54672 15 4.75539 15 5.00022H18.75C18.9625 5.00022 19.1406 5.07214 19.2843 5.21597C19.4281 5.35981 19.5 5.53797 19.5 5.75047C19.5 5.96314 19.4281 6.14122 19.2843 6.28472C19.1406 6.42839 18.9625 6.50022 18.75 6.50022H18.5V19.1925C18.5 19.6896 18.323 20.1152 17.969 20.4692C17.615 20.8232 17.1894 21.0002 16.6923 21.0002H7.30775ZM17 6.50022H7V19.1925C7 19.2823 7.02883 19.3561 7.0865 19.4137C7.14417 19.4714 7.21792 19.5002 7.30775 19.5002H16.6923C16.7821 19.5002 16.8558 19.4714 16.9135 19.4137C16.9712 19.3561 17 19.2823 17 19.1925V6.50022ZM10.1543 17.5002C10.3668 17.5002 10.5448 17.4284 10.6885 17.2847C10.832 17.1409 10.9037 16.9627 10.9037 16.7502V9.25022C10.9037 9.03772 10.8318 8.85956 10.688 8.71572C10.5443 8.57206 10.3662 8.50022 10.1535 8.50022C9.941 8.50022 9.76292 8.57206 9.61925 8.71572C9.47575 8.85956 9.404 9.03772 9.404 9.25022V16.7502C9.404 16.9627 9.47583 17.1409 9.6195 17.2847C9.76333 17.4284 9.94158 17.5002 10.1543 17.5002ZM13.8465 17.5002C14.059 17.5002 14.2371 17.4284 14.3807 17.2847C14.5243 17.1409 14.596 16.9627 14.596 16.7502V9.25022C14.596 9.03772 14.5242 8.85956 14.3805 8.71572C14.2367 8.57206 14.0584 8.50022 13.8458 8.50022C13.6333 8.50022 13.4552 8.57206 13.3115 8.71572C13.168 8.85956 13.0962 9.03772 13.0962 9.25022V16.7502C13.0962 16.9627 13.1682 17.1409 13.312 17.2847C13.4557 17.4284 13.6338 17.5002 13.8465 17.5002Z" fill="#646464"/>
</g>
</svg>
